<svg xmlns="http://www.w3.org/2000/svg" viewBox="0 0 960 540" width="960" height="540">
  <defs>
    <linearGradient id="ix-bg" x1="0%" y1="0%" x2="100%" y2="100%">
      <stop offset="0%" stop-color="#100a1c" />
      <stop offset="50%" stop-color="#1b1232" />
      <stop offset="100%" stop-color="#281846" />
    </linearGradient>
    <radialGradient id="ix-glow" cx="55%" cy="40%" r="60%">
      <stop offset="0%" stop-color="#f8b7ff" stop-opacity="0.6" />
      <stop offset="100%" stop-color="#f8b7ff" stop-opacity="0" />
    </radialGradient>
    <linearGradient id="ix-panel" x1="0%" x2="100%">
      <stop offset="0%" stop-color="#281846" stop-opacity="0.92" />
      <stop offset="100%" stop-color="#3a1f63" stop-opacity="0.8" />
    </linearGradient>
    <linearGradient id="ix-orbit" x1="0%" x2="100%">
      <stop offset="0%" stop-color="#ff9bfb" stop-opacity="0.8" />
      <stop offset="100%" stop-color="#7f83ff" stop-opacity="0.2" />
    </linearGradient>
    <radialGradient id="ix-node" r="1">
      <stop offset="0%" stop-color="#ffe1ff" />
      <stop offset="100%" stop-color="#ffb7ff" stop-opacity="0.05" />
    </radialGradient>
    <filter id="ix-blur" x="-10%" y="-10%" width="120%" height="120%">
      <feGaussianBlur stdDeviation="45" />
    </filter>
  </defs>
  <rect width="960" height="540" rx="24" fill="url(#ix-bg)" />
  <rect width="960" height="540" fill="url(#ix-glow)" />
  <g opacity="0.8" stroke="url(#ix-orbit)" stroke-width="2.5" fill="none">
    <ellipse cx="480" cy="260" rx="320" ry="160" />
    <ellipse cx="480" cy="260" rx="260" ry="120" opacity="0.7" />
    <ellipse cx="480" cy="260" rx="180" ry="80" opacity="0.5" />
  </g>
  <g opacity="0.8">
    <circle cx="480" cy="100" r="18" fill="url(#ix-node)" />
    <circle cx="260" cy="220" r="14" fill="url(#ix-node)" />
    <circle cx="700" cy="320" r="16" fill="url(#ix-node)" />
    <circle cx="360" cy="360" r="12" fill="url(#ix-node)" />
    <circle cx="610" cy="170" r="10" fill="url(#ix-node)" />
  </g>
  <g transform="translate(220 150)">
    <rect x="0" y="0" width="520" height="320" rx="36" fill="url(#ix-panel)" opacity="0.95" />
    <rect x="48" y="70" width="420" height="44" rx="20" fill="#2e1b4d" opacity="0.7" />
    <rect x="48" y="136" width="360" height="32" rx="14" fill="#f8b7ff" opacity="0.4" />
    <rect x="48" y="188" width="300" height="32" rx="14" fill="#f8b7ff" opacity="0.28" />
    <rect x="48" y="240" width="240" height="32" rx="14" fill="#f8b7ff" opacity="0.2" />
    <circle cx="420" cy="92" r="24" fill="#ff9bfb" opacity="0.35" />
    <circle cx="460" cy="92" r="12" fill="#ffe1ff" opacity="0.45" />
  </g>
  <ellipse cx="740" cy="160" rx="200" ry="120" fill="#ff9bfb" opacity="0.18" filter="url(#ix-blur)" />
  <ellipse cx="240" cy="380" rx="220" ry="130" fill="#7f83ff" opacity="0.16" filter="url(#ix-blur)" />
</svg>
