<svg xmlns="http://www.w3.org/2000/svg" viewBox="0 0 960 540" width="960" height="540">
  <defs>
    <linearGradient id="nv-bg" x1="0%" x2="100%" y1="0%" y2="100%">
      <stop offset="0%" stop-color="#09111f" />
      <stop offset="50%" stop-color="#101c33" />
      <stop offset="100%" stop-color="#1c2d4e" />
    </linearGradient>
    <radialGradient id="nv-glow" cx="50%" cy="30%" r="65%">
      <stop offset="0%" stop-color="#63e0ff" stop-opacity="0.55" />
      <stop offset="100%" stop-color="#63e0ff" stop-opacity="0" />
    </radialGradient>
    <linearGradient id="nv-panel" x1="0%" x2="100%">
      <stop offset="0%" stop-color="#12233d" stop-opacity="0.9" />
      <stop offset="100%" stop-color="#182f51" stop-opacity="0.75" />
    </linearGradient>
    <linearGradient id="nv-wire" x1="0%" x2="100%">
      <stop offset="0%" stop-color="#63e0ff" stop-opacity="0.65" />
      <stop offset="100%" stop-color="#90f1ff" stop-opacity="0.1" />
    </linearGradient>
    <radialGradient id="nv-node" r="1">
      <stop offset="0%" stop-color="#b5f7ff" />
      <stop offset="100%" stop-color="#63e0ff" stop-opacity="0.05" />
    </radialGradient>
    <filter id="nv-blur" x="-10%" y="-10%" width="120%" height="120%">
      <feGaussianBlur stdDeviation="40" />
    </filter>
  </defs>
  <rect fill="url(#nv-bg)" width="960" height="540" rx="24" />
  <rect fill="url(#nv-glow)" width="960" height="540" />
  <g opacity="0.75">
    <path d="M120 280 L320 160 L520 240 L760 120" stroke="url(#nv-wire)" stroke-width="3" fill="none" />
    <path d="M180 360 L420 300 L640 400 L820 260" stroke="url(#nv-wire)" stroke-width="2" fill="none" />
    <path d="M120 200 L260 340 L520 180 L740 320" stroke="url(#nv-wire)" stroke-width="2" fill="none" />
    <circle cx="120" cy="280" r="14" fill="url(#nv-node)" />
    <circle cx="320" cy="160" r="18" fill="url(#nv-node)" />
    <circle cx="520" cy="240" r="16" fill="url(#nv-node)" />
    <circle cx="760" cy="120" r="14" fill="url(#nv-node)" />
    <circle cx="180" cy="360" r="12" fill="url(#nv-node)" />
    <circle cx="420" cy="300" r="20" fill="url(#nv-node)" />
    <circle cx="640" cy="400" r="15" fill="url(#nv-node)" />
    <circle cx="820" cy="260" r="13" fill="url(#nv-node)" />
  </g>
  <g transform="translate(200 150)">
    <rect x="0" y="0" width="560" height="320" rx="32" fill="url(#nv-panel)" opacity="0.92" />
    <rect x="40" y="60" width="480" height="40" rx="16" fill="#121c2e" opacity="0.6" />
    <rect x="40" y="120" width="360" height="32" rx="12" fill="#63e0ff" opacity="0.45" />
    <rect x="40" y="172" width="360" height="32" rx="12" fill="#63e0ff" opacity="0.25" />
    <rect x="40" y="224" width="260" height="32" rx="12" fill="#63e0ff" opacity="0.2" />
    <circle cx="480" cy="80" r="26" fill="#63e0ff" opacity="0.28" />
    <circle cx="520" cy="80" r="14" fill="#90f1ff" opacity="0.42" />
  </g>
  <ellipse cx="720" cy="420" rx="200" ry="120" fill="#63e0ff" opacity="0.2" filter="url(#nv-blur)" />
  <ellipse cx="260" cy="120" rx="180" ry="100" fill="#63e0ff" opacity="0.12" filter="url(#nv-blur)" />
</svg>
