<svg xmlns="http://www.w3.org/2000/svg" viewBox="0 0 640 360" width="640" height="360">
  <defs>
    <linearGradient id="suite-bg" x1="0%" y1="0%" x2="100%" y2="100%">
      <stop offset="0%" stop-color="#10192b" />
      <stop offset="100%" stop-color="#1b2f4a" />
    </linearGradient>
    <linearGradient id="suite-tile" x1="0%" x2="100%">
      <stop offset="0%" stop-color="#142238" />
      <stop offset="100%" stop-color="#1f3351" />
    </linearGradient>
    <linearGradient id="suite-accent" x1="0%" x2="100%">
      <stop offset="0%" stop-color="#7f83ff" />
      <stop offset="100%" stop-color="#63e0ff" />
    </linearGradient>
  </defs>
  <rect width="640" height="360" rx="32" fill="url(#suite-bg)" />
  <g transform="translate(120 80)" opacity="0.85">
    <rect x="0" y="0" width="160" height="160" rx="24" fill="url(#suite-tile)" />
    <rect x="200" y="0" width="160" height="160" rx="24" fill="url(#suite-tile)" opacity="0.9" />
    <rect x="100" y="180" width="200" height="80" rx="24" fill="url(#suite-tile)" opacity="0.95" />
    <rect x="28" y="28" width="104" height="16" rx="8" fill="url(#suite-accent)" opacity="0.7" />
    <rect x="228" y="28" width="104" height="16" rx="8" fill="url(#suite-accent)" opacity="0.6" />
    <rect x="140" y="208" width="120" height="16" rx="8" fill="url(#suite-accent)" opacity="0.65" />
    <rect x="28" y="56" width="80" height="8" rx="4" fill="#63e0ff" opacity="0.4" />
    <rect x="228" y="56" width="80" height="8" rx="4" fill="#63e0ff" opacity="0.35" />
    <rect x="140" y="236" width="96" height="8" rx="4" fill="#63e0ff" opacity="0.35" />
  </g>
  <g opacity="0.22">
    <circle cx="520" cy="120" r="120" fill="#63e0ff" />
    <circle cx="160" cy="280" r="140" fill="#7f83ff" />
  </g>
</svg>
