<svg xmlns="http://www.w3.org/2000/svg" viewBox="0 0 640 360" width="640" height="360">
  <defs>
    <linearGradient id="consult-bg" x1="0%" y1="0%" x2="100%" y2="100%">
      <stop offset="0%" stop-color="#111b2e" />
      <stop offset="100%" stop-color="#1f2d46" />
    </linearGradient>
    <linearGradient id="consult-panel" x1="0%" x2="100%">
      <stop offset="0%" stop-color="#1c2b46" stop-opacity="0.92" />
      <stop offset="100%" stop-color="#25395a" stop-opacity="0.78" />
    </linearGradient>
    <linearGradient id="consult-accent" x1="0%" x2="100%">
      <stop offset="0%" stop-color="#63e0ff" />
      <stop offset="100%" stop-color="#7f83ff" />
    </linearGradient>
  </defs>
  <rect width="640" height="360" rx="32" fill="url(#consult-bg)" />
  <g opacity="0.2">
    <circle cx="160" cy="120" r="100" fill="#7f83ff" />
    <circle cx="520" cy="280" r="140" fill="#63e0ff" />
  </g>
  <g transform="translate(100 80)">
    <rect x="0" y="0" width="440" height="200" rx="28" fill="url(#consult-panel)" />
    <rect x="280" y="40" width="120" height="24" rx="10" fill="#0f1828" opacity="0.5" />
    <rect x="280" y="76" width="100" height="16" rx="8" fill="#63e0ff" opacity="0.4" />
    <rect x="280" y="104" width="120" height="12" rx="6" fill="#63e0ff" opacity="0.3" />
    <rect x="280" y="128" width="140" height="12" rx="6" fill="#63e0ff" opacity="0.24" />
    <rect x="40" y="48" width="200" height="104" rx="20" fill="#101a2a" opacity="0.65" />
    <rect x="72" y="72" width="136" height="16" rx="8" fill="#63e0ff" opacity="0.6" />
    <rect x="72" y="100" width="104" height="12" rx="6" fill="#63e0ff" opacity="0.4" />
  </g>
  <rect x="220" y="260" width="200" height="28" rx="14" fill="url(#consult-accent)" opacity="0.7" />
</svg>
