<svg xmlns="http://www.w3.org/2000/svg" viewBox="0 0 640 360" width="640" height="360">
  <defs>
    <linearGradient id="dash-bg" x1="0%" y1="0%" x2="100%" y2="100%">
      <stop offset="0%" stop-color="#101a2a" />
      <stop offset="100%" stop-color="#172840" />
    </linearGradient>
    <linearGradient id="dash-card" x1="0%" x2="100%">
      <stop offset="0%" stop-color="#182944" stop-opacity="0.9" />
      <stop offset="100%" stop-color="#203454" stop-opacity="0.75" />
    </linearGradient>
    <linearGradient id="dash-accent" x1="0%" x2="100%">
      <stop offset="0%" stop-color="#63e0ff" />
      <stop offset="100%" stop-color="#90f1ff" />
    </linearGradient>
  </defs>
  <rect width="640" height="360" rx="32" fill="url(#dash-bg)" />
  <g opacity="0.25">
    <circle cx="520" cy="100" r="120" fill="#63e0ff" />
    <circle cx="140" cy="300" r="110" fill="#63e0ff" />
  </g>
  <g transform="translate(80 70)">
    <rect x="0" y="0" width="480" height="220" rx="28" fill="url(#dash-card)" />
    <rect x="48" y="60" width="200" height="120" rx="18" fill="#111c2e" opacity="0.7" />
    <rect x="280" y="60" width="152" height="32" rx="12" fill="#111c2e" opacity="0.6" />
    <rect x="280" y="104" width="152" height="32" rx="12" fill="#111c2e" opacity="0.5" />
    <rect x="280" y="148" width="112" height="32" rx="12" fill="#111c2e" opacity="0.4" />
    <rect x="48" y="200" width="384" height="12" rx="6" fill="#63e0ff" opacity="0.35" />
    <rect x="96" y="88" width="104" height="12" rx="6" fill="url(#dash-accent)" opacity="0.7" />
    <rect x="96" y="112" width="88" height="8" rx="4" fill="#63e0ff" opacity="0.5" />
  </g>
</svg>
