<svg xmlns="http://www.w3.org/2000/svg" viewBox="0 0 1200 630" role="img" aria-labelledby="title desc">
  <title id="title">AlgoRhythmics Open Graph cover</title>
  <desc id="desc">Glassmorphic landscape with floating nodes and company logotype</desc>
  <defs>
    <linearGradient id="bg" x1="0" y1="0" x2="1" y2="1">
      <stop offset="0%" stop-color="#0f172a" />
      <stop offset="100%" stop-color="#172554" />
    </linearGradient>
    <linearGradient id="panel" x1="0" y1="0" x2="1" y2="1">
      <stop offset="0%" stop-color="rgba(255,255,255,0.18)" />
      <stop offset="100%" stop-color="rgba(148,163,184,0.12)" />
    </linearGradient>
    <radialGradient id="pulse" cx="50%" cy="40%" r="70%">
      <stop offset="0%" stop-color="rgba(76,201,240,0.4)" />
      <stop offset="100%" stop-color="rgba(67,97,238,0)" />
    </radialGradient>
    <linearGradient id="headline" x1="0" y1="0" x2="1" y2="0">
      <stop offset="0%" stop-color="#5ef1ff" />
      <stop offset="100%" stop-color="#9d7bff" />
    </linearGradient>
  </defs>
  <rect width="1200" height="630" fill="url(#bg)" />
  <circle cx="320" cy="180" r="220" fill="url(#pulse)" />
  <circle cx="900" cy="280" r="260" fill="url(#pulse)" opacity="0.55" />
  <g fill="none" stroke="rgba(148,163,184,0.4)" stroke-width="2">
    <path d="M240 180l140-60 120 80 80-140 120 60 100-80 120 140" />
    <path d="M260 360l120-40 140 120 140-60 120 100" opacity="0.75" />
  </g>
  <g fill="rgba(148,163,184,0.4)">
    <circle cx="240" cy="180" r="9" />
    <circle cx="380" cy="120" r="7" />
    <circle cx="500" cy="200" r="6" />
    <circle cx="580" cy="60" r="8" />
    <circle cx="700" cy="120" r="7" />
    <circle cx="800" cy="40" r="9" />
    <circle cx="920" cy="180" r="8" />
    <circle cx="1040" cy="320" r="7" />
    <circle cx="400" cy="320" r="8" />
    <circle cx="520" cy="440" r="6" />
    <circle cx="660" cy="380" r="7" />
    <circle cx="820" cy="460" r="9" />
    <circle cx="980" cy="420" r="8" />
  </g>
  <rect x="140" y="320" width="920" height="220" rx="36" fill="url(#panel)" stroke="rgba(255,255,255,0.1)" stroke-width="2" />
  <g fill="none" stroke="rgba(94,241,255,0.35)" stroke-width="1.5">
    <path d="M240 360l80 60 100-40 120 80 100-60 140 100 80-40" />
  </g>
  <g fill="white" font-family="'Plus Jakarta Sans', 'Segoe UI', sans-serif" text-anchor="start">
    <text x="220" y="430" font-size="72" font-weight="700">AlgoRhythmics</text>
    <text x="220" y="490" font-size="32" fill="rgba(226,232,240,0.85)">Glass-first AI experiences for complex teams</text>
  </g>
  <rect x="220" y="520" width="280" height="56" rx="28" fill="rgba(15,23,42,0.6)" stroke="url(#headline)" stroke-width="2" />
  <text x="360" y="558" font-size="28" font-family="'Plus Jakarta Sans', 'Segoe UI', sans-serif" fill="url(#headline)" text-anchor="middle">
    Experience the platform
  </text>
</svg>
